<?xml version="1.0" standalone="no"?>
<!DOCTYPE svg PUBLIC "-//W3C//DTD SVG 20010904//EN"
 "http://www.w3.org/TR/2001/REC-SVG-20010904/DTD/svg10.dtd">
<svg version="1.0" xmlns="http://www.w3.org/2000/svg"
 width="150.000000pt" height="150.000000pt" viewBox="0 0 150.000000 150.000000"
 preserveAspectRatio="xMidYMid meet">
<metadata>
Created by potrace 1.11, written by Peter Selinger 2001-2013
</metadata>
<g transform="translate(0.000000,150.000000) scale(0.100000,-0.100000)"
fill="#000000" stroke="none">
<path d="M408 1479 c-23 -13 -35 -61 -48 -197 -9 -84 -9 -136 0 -200 12 -96
57 -274 92 -367 21 -57 22 -75 23 -353 1 -325 -1 -316 70 -332 130 -29 405
-18 455 19 l25 18 0 289 0 289 32 95 c82 245 101 370 84 548 -7 76 -19 141
-29 162 l-17 35 -335 2 c-212 2 -341 -1 -352 -8z m646 -85 c4 -15 11 -72 16
-128 13 -152 -5 -268 -76 -486 l-38 -115 -1 -281 0 -282 -44 -6 c-58 -8 -276
-7 -324 2 l-38 7 -2 285 c-3 267 -4 289 -25 345 -13 33 -37 112 -55 175 -30
107 -32 126 -32 275 0 88 4 177 8 198 l8 37 298 0 299 0 6 -26z"/>
<path d="M475 1113 c7 -72 47 -232 91 -373 26 -82 27 -93 29 -340 l2 -255 64
-6 c35 -4 106 -4 157 -1 l93 5 -6 156 c-10 226 4 357 54 521 41 133 71 275 71
331 l0 29 -225 0 -225 0 0 -28 c0 -46 19 -141 47 -235 20 -67 24 -90 15 -99
-8 -8 -15 -9 -22 -2 -19 19 -70 216 -77 291 l-6 73 -35 0 -34 0 7 -67z"/>
</g>
</svg>
